<?xml version="1.0" standalone="no"?><svg data-noselect="" 
  viewBox="187.33562654619 141.43563842773 435 326.570621863984" 
  width="435" 
  height="326.570621863984" 
  ref="svg_canvas" 
  preserveAspectRatio="none" 
  version="1.1" xmlns="http://www.w3.org/2000/svg" 
  style="background: rgb(29, 29, 29);">
    <defs></defs>
    <g id="shape_HkEEaC51hC" class=""  ref="shape_HkEEaC51hC" key="shape_HkEEaC51hC" transform="translate(303.82319341357,345.30058956146) rotate(0,83.590557049525,21.352835365127) scale(1,1)" style="cursor:move;display:inline;opacity:1;" filter="">
            <g style="display:inline"><rect fill="rgba(0,0,0,0)" width="187.18111409905" height="62.705670730254" x="-10" y="-10"></rect><svg version="1.1" id="图层_1" xmlns="http://www.w3.org/2000/svg" xmlns:xlink="http://www.w3.org/1999/xlink" x="0px" y="0px" width="167.18111409905" height="42.705670730254" viewBox="0 0 101 25.8" style="enable-background:new 0 0 101 25.8;" xml:space="preserve" preserveAspectRatio="none" data-parent="shape_HkEEaC51hC">
<style type="text/css">
	.st0{fill:#F1CAAC;}
</style>
<g>
	<path class="" d="M100.2,0c-1.1,0-2.1,0.5-2.8,1.2c-0.6,0.6-1.2,1.2-1.8,1.8c-0.5,0.4-0.9,0.9-1.4,1.3L69.6,4.3l16,3.3v1.2
		L64.6,9l14.8,2.5v1.5L58.8,13l14.1,1.9v0.9c0,0,0,0,0,0c-4.1,1-8.4,1.6-12.9,1.6c-6.6,0-12.9-1.2-18.7-3.5
		c-1.1,0.7-2.3,1.5-3.5,2.3c6.7,3.3,14.2,5.2,22.2,5.2c15.5,0,29.4-7.1,38.8-18.4c0.8-1,1.6-2,2.4-3.1H100.2z" fill="rgb(241, 202, 172)"></path>
	<path class="" d="M53.6,0h-1.3c-1.6,0-3.2,0.5-4.6,1.5C47,2,46.2,2.5,45.5,3.1c-4,2.8-7.9,5.2-11.5,7.3
		c-3.5-2.1-6.8-4.5-9.6-7.3c-0.6-0.6-1.2-1.2-1.8-1.9C21.8,0.4,20.8,0,19.7,0h-0.9c0.7,1.1,1.5,2.1,2.4,3.1c2.8,3.4,6.1,6.5,9.7,9.1
		c-12,6.5-21,8.9-23.9,5.5C4.7,15.2,6,10,10,3.1c0.6-1,1.2-2,1.9-3.1h-1.1c-1.2,0-2.3,0.6-3,1.6c-0.3,0.5-0.6,1-0.9,1.5
		C0.6,13.1-1.7,20.7,1.3,24c4,4.4,16.4,0.2,32.5-10c1-0.7,2.1-1.3,3.2-2c4-2.7,8.3-5.7,12.7-8.9C51,2.1,52.3,1.1,53.6,0z" fill="rgb(241, 202, 172)"></path>
</g>
</svg></g>
        </g><g id="shape_xO7yRTtfir" class=""  ref="shape_xO7yRTtfir" key="shape_xO7yRTtfir" transform="translate(334.29194557976,221.43563842773) rotate(0,85.778057049525,18.808757838785) scale(1,1)" style="cursor:move;display:inline;opacity:1;" filter="">
            <g style="display:inline"><rect fill="rgba(0,0,0,0)" width="191.55611409905" height="57.61751567757" x="-10" y="-10"></rect><svg version="1.1" id="图层_1" xmlns="http://www.w3.org/2000/svg" xmlns:xlink="http://www.w3.org/1999/xlink" x="0px" y="0px" width="171.55611409905" height="37.61751567757" viewBox="0 0 101.7 22.3" style="enable-background:new 0 0 101.7 22.3;" xml:space="preserve" preserveAspectRatio="none" data-parent="shape_xO7yRTtfir">
<style type="text/css">
	.st0{fill:#2D5BA8;}
</style>
<path class="" d="M100.4,1.8c-3.9-4.3-15.8-0.6-31.3,8.8c-8.2-5.7-18-9-28.6-9C24,1.6,9.3,9.7,0,22.3h1.3c1,0,2-0.4,2.7-1.1
	c1.2-1.2,2.4-2.4,3.7-3.5c0,0,0,0,0,0l24.6,0.1l-16-3.3v-1.2l21-0.1l-14.8-2.5V9.1l20.7-0.1L29.1,7.2V7.1c3.7-0.8,7.6-1.3,11.6-1.3
	c9.3,0,18,2.4,25.5,6.7l0,0l0,0c1.1,0.6,2.2,1.3,3.2,2l0,0c3,2,5.7,4.3,8.2,6.8c0.6,0.6,1.4,1,2.2,1h1.4c-2.6-3.5-5.6-6.7-8.9-9.4
	l0,0c11-5.9,19.2-7.9,22-4.7c2.1,2.4,1,7.4-2.7,14.1h2c0.9,0,1.7-0.5,2.2-1.2C101.3,11.9,103.3,4.9,100.4,1.8z" fill="rgb(241, 202, 172)"></path>
</svg></g>
        </g><g id="shape_tc2VIEPU6p" class="brand_name"  ref="shape_tc2VIEPU6p" key="shape_tc2VIEPU6p" transform="translate(330.841997275405,89.43143028458996) rotate(0,170.11377591029,196.57169828979605) scale(1,1)" style="cursor:move;display:inline;opacity:1;" filter="">
            <g style="display:inline"><svg xmlns="http://www.w3.org/2000/svg" version="1.1" xmlns:xlink="http://www.w3.org/1999/xlink" width="262.8" height="392.8221000000001" viewBox="0 0 262.8 392.8221000000001" preserveAspectRatio="none" data-parent="shape_tc2VIEPU6p"><rect fill="rgba(0,0,0,0)" width="39" height="55" x="55.95" y="168.91105000000005"></rect><g data-width="38.885250000000006" transform="translate(56.007374999999996, 0)"><path d="M22.38 0L3.64 0L3.64-6.66L20.70-6.66Q24.79-6.66 26.13-7.44L26.13-7.44Q28.09-8.62 28.09-10.97L28.09-10.97Q28.09-13.71 25.79-14.94L25.79-14.94Q24.51-15.67 21.65-15.67L21.65-15.67L14.71-15.67Q8.39-15.67 5.60-17.96L5.60-17.96Q3.86-19.41 2.88-21.60Q1.90-23.78 1.90-26.30L1.90-26.30Q1.90-30.21 4.20-33.46L4.20-33.46Q6.43-36.59 11.36-37.15L11.36-37.15Q13.04-37.32 16.34-37.32L16.34-37.32L34.86-37.32L34.86-30.66L18.13-30.66Q14.38-30.60 13.15-30.32L13.15-30.32Q10.63-29.71 10.63-26.52L10.63-26.52Q10.63-23.83 12.76-22.94L12.76-22.94Q14.16-22.27 17.46-22.27L17.46-22.27L23.44-22.27Q28.03-22.27 30.27-21.48L30.27-21.48Q34.24-20.14 35.75-16.79L35.75-16.79Q36.93-14.10 36.93-11.02L36.93-11.02Q36.93-7.61 35.36-4.92L35.36-4.92Q33.18-1.12 28.81-0.34L28.81-0.34Q26.69 0 22.38 0L22.38 0Z" transform="translate(0 215.91105000000005) " fill="rgb(241, 202, 172)" stroke="rgb(241, 202, 172)" stroke-width="0.093" data-glyph-w="38.885250000000006" data-glyph-h="55.95000000000001" data-glyph-ascender="48.06105000000001" data-glyph-descender="-7.888950000000001"></path></g></svg></g>
        </g><g id="shape_q9VpPOvEzA" class="brand_slogan"  ref="shape_q9VpPOvEzA" key="shape_q9VpPOvEzA" transform="translate(335.19198798293496,204.26057727716) rotate(0,140.16450379244,121.54000000000002) scale(1,1)" style="cursor:move;display:inline;opacity:1;" filter="">
            <g style="display:inline"><svg xmlns="http://www.w3.org/2000/svg" version="1.1" xmlns:xlink="http://www.w3.org/1999/xlink" width="209.4" height="243.08000000000004" viewBox="0 0 209.4 243.08000000000004" preserveAspectRatio="none" data-parent="shape_q9VpPOvEzA"><rect fill="rgba(0,0,0,0)" width="75" height="33" x="33.6" y="105.04000000000002"></rect><g data-width="74.74329064417574" transform="translate(33.72835467791213, 0)"><path d="M10.25-22.14Q13.44-22.14 16.56-20.97L16.56-20.97L15.49-15.49L14.55-15.09Q13.14-15.96 11.76-16.46Q10.38-16.97 9.54-16.97L9.54-16.97Q8.77-16.97 8.32-16.67Q7.86-16.36 7.86-15.86L7.86-15.86Q7.86-15.22 8.55-14.77Q9.24-14.31 10.85-13.57L10.85-13.57Q12.73-12.73 13.94-12.01Q15.15-11.29 16.06-10.03Q16.97-8.77 16.97-6.92L16.97-6.92Q16.97-4.87 15.84-3.21Q14.72-1.55 12.63-0.57Q10.55 0.40 7.80 0.40L7.80 0.40Q4.37 0.40 0.60-0.87L0.60-0.87L1.58-6.72L2.25-7.12Q3.80-5.95 5.56-5.26Q7.32-4.57 8.50-4.57L8.50-4.57Q9.44-4.57 9.86-4.89Q10.28-5.21 10.28-5.68L10.28-5.68Q10.28-6.38 9.56-6.87Q8.84-7.36 7.22-8.06L7.22-8.06Q5.38-8.87 4.18-9.59Q2.99-10.32 2.12-11.58Q1.24-12.84 1.24-14.68L1.24-14.68Q1.24-16.80 2.39-18.50Q3.53-20.19 5.58-21.17Q7.63-22.14 10.25-22.14L10.25-22.14Z" transform="translate(0 131.04000000000002) " fill="rgb(241, 202, 172)" stroke="rgb(241, 202, 172)" stroke-width="0.056" data-glyph-w="18.274222661043936" data-glyph-h="40.32000000000001" data-glyph-ascender="30.240000000000006" data-glyph-descender="-10.080000000000002"></path><path d="M8.87-21.74L8.50-7.06L8.77 0L2.02 0L2.35-6.38L2.02-21.74L8.87-21.74Z" transform="translate(18.274222661043936 131.04000000000002) " fill="rgb(241, 202, 172)" stroke="rgb(241, 202, 172)" stroke-width="0.056" data-glyph-w="11.520622661043934" data-glyph-h="40.32000000000001" data-glyph-ascender="30.240000000000006" data-glyph-descender="-10.080000000000002"></path><path d="M12.84-22.11Q16.46-22.11 19.12-21.10L19.12-21.10L17.67-15.15L17.14-15.15Q15.46-15.99 14.23-16.36Q13.00-16.73 11.56-16.73L11.56-16.73Q10.01-16.73 9.19-16.23Q8.37-15.72 8.00-14.45Q7.63-13.17 7.63-10.75L7.63-10.75Q7.63-8.30 8.00-7.01Q8.37-5.71 9.26-5.19Q10.15-4.67 11.83-4.67L11.83-4.67Q12.30-4.67 13.04-4.80L13.04-4.80L13.04-5.88L12.94-9.54L19.08-9.98L18.98-7.02L18.98-1.08Q15.09 0.40 11.22 0.40L11.22 0.40Q5.95 0.40 3.26-2.40Q0.57-5.21 0.57-10.42L0.57-10.42Q0.57-16.13 3.75-19.12Q6.92-22.11 12.84-22.11L12.84-22.11Z" transform="translate(29.79484532208787 131.04000000000002) " fill="rgb(241, 202, 172)" stroke="rgb(241, 202, 172)" stroke-width="0.056" data-glyph-w="20.559022661043937" data-glyph-h="40.32000000000001" data-glyph-ascender="30.240000000000006" data-glyph-descender="-10.080000000000002"></path><path d="M21.84-21.87L21.47-7.09L21.74 0L14.41 0L8.30-11.63L7.90-11.63L7.86-7.86L8.13 0L2.02 0L2.35-6.38L2.02-21.74L9.34-21.74L15.46-10.11L15.86-10.11L15.66-21.50L21.84-21.87Z" transform="translate(50.353867983131806 131.04000000000002) " fill="rgb(241, 202, 172)" stroke="rgb(241, 202, 172)" stroke-width="0.056" data-glyph-w="24.389422661043938" data-glyph-h="40.32000000000001" data-glyph-ascender="30.240000000000006" data-glyph-descender="-10.080000000000002"></path></g></svg></g>
        </g>
  </svg>