<svg data-v-2cb57da0="" version="1.0" xmlns="http://www.w3.org/2000/svg" xmlns:xlink="http://www.w3.org/1999/xlink" width="100%" height="100%" viewBox="0 0 340.000000 250.000000" preserveAspectRatio="xMidYMid meet" color-interpolation-filters="sRGB" style="margin: auto;"><rect data-v-2cb57da0="" x="0" y="0" width="100%" height="100%" fill="#f9886c" fill-opacity="0" class="background"></rect> <rect data-v-2cb57da0="" x="0" y="0" width="100%" height="100%" fill="url(#watermark)" fill-opacity="1" class="watermarklayer"></rect> <g data-v-2cb57da0="" fill="#feffff" class="bordersvg b-d1" transform="translate(42.089988708496094,79.06500244140625)"><polyline stroke="#feffff" stroke-width="3" fill-opacity="0" fill="#f9886c" points="132.9100112915039,30 132.9100112915039,10 10,10 10,91.86999893188477 132.9100112915039,91.86999893188477 132.9100112915039,71.86999893188477"></polyline> <polyline stroke="#feffff" stroke-width="3" fill-opacity="0" fill="#f9886c" points="122.9100112915039,10 122.9100112915039,0 0,0 0,81.86999893188477 10,81.86999893188477"></polyline> <g transform="translate(10,30)"><g><rect data-gra="graph-name-bg" stroke-width="2" class="i-icon-bg" x="0" y="0" width="245.82000732421875" height="41.869998931884766" fill-opacity="0"></rect> </g> <g transform="translate(10,3)"><g data-gra="path-name" fill-rule="" class="tp-name" opacity="0.15772644703565564" transform="matrix(1,0,0,1,0,0)"><g transform="scale(1)"><g><path d="M8.62-20.79L20.84-20.79 20.84-16.35 10.72-16.35Q8.97-16.35 8.5-16.18L8.5-16.18Q7.51-15.84 7.51-14.52L7.51-14.52Q7.51-13.41 8.45-12.81L8.45-12.81Q8.97-12.47 11.23-12.47L11.23-12.47 14.6-12.47Q17.85-12.47 19.73-11.1L19.73-11.1Q21.82-9.56 21.82-6.58L21.82-6.58Q21.82-4.31 20.54-2.43L20.54-2.43Q19.6-0.94 18.25-0.47 16.91 0 13.75 0L13.75 0 1.92 0 1.92-4.44 12.13-4.44Q14-4.44 14.69-4.48L14.69-4.48Q16.22-4.65 16.22-6.23L16.22-6.23Q16.22-7.51 15.2-7.98L15.2-7.98Q14.69-8.24 12.72-8.24L12.72-8.24 9.26-8.24Q7.22-8.24 6.13-8.5 5.04-8.75 4.1-9.44L4.1-9.44Q2.95-10.25 2.28-11.68 1.62-13.11 1.62-14.73L1.62-14.73Q1.62-17.85 3.89-19.68L3.89-19.68Q5.25-20.79 8.62-20.79L8.62-20.79ZM35.78-21.09L35.78-21.09Q41.54-21.09 44.28-17.76L44.28-17.76Q46.79-14.73 46.79-10.12L46.79-10.12Q46.79-5.25 43.63-2.35L43.63-2.35Q40.73 0.3 35.69 0.3L35.69 0.3Q30.48 0.3 27.54-2.69L27.54-2.69Q24.81-5.38 24.81-10.55L24.81-10.55Q24.81-14.9 27.41-17.8L27.41-17.8Q30.31-21.05 35.78-21.09ZM35.82-16.74L35.82-16.74Q30.66-16.74 30.66-10.33L30.66-10.33Q30.66-7.73 31.51-6.36L31.51-6.36Q32.92-4.06 35.86-4.06L35.86-4.06Q40.94-4.06 40.94-10.42L40.94-10.42Q40.94-16.65 35.82-16.74ZM56.74-28.48L56.74 0 51.02 0 51.02-28.48 56.74-28.48ZM69.72-12.64L76.72-12.64Q76.72-14.82 75.85-15.58 74.97-16.35 72.37-16.35L72.37-16.35 62.72-16.35 62.72-20.79 72.37-20.79Q74.97-20.79 75.96-20.69 76.94-20.58 77.96-20.28L77.96-20.28Q82.7-18.49 82.44-11.7L82.44-11.7 82.44 0 70.4 0Q67.16 0 65.92-0.19 64.68-0.38 63.74-0.98L63.74-0.98Q61.23-2.69 61.23-6.15L61.23-6.15Q61.23-8.24 62.23-9.88 63.23-11.53 64.9-12.13L64.9-12.13Q66.35-12.64 69.72-12.64L69.72-12.64ZM76.72-4.44L76.72-8.2 70.15-8.2 69.17-8.2Q68.18-8.2 67.61-7.69 67.03-7.17 67.03-6.28L67.03-6.28Q67.03-5.29 67.74-4.87 68.44-4.44 70.15-4.44L70.15-4.44 76.72-4.44ZM87.78 0L87.78-20.79 98.8-20.79Q101.27-20.79 102.58-20.43 103.88-20.07 104.95-19.13L104.95-19.13Q107.12-17.12 107.12-12.81L107.12-12.81 107.12 0 101.4 0 101.4-13.45Q101.4-14.99 100.72-15.67 100.04-16.35 98.46-16.35L98.46-16.35 93.5-16.35 93.5 0 87.78 0ZM119.8-12.64L126.81-12.64Q126.81-14.82 125.93-15.58 125.05-16.35 122.45-16.35L122.45-16.35 112.8-16.35 112.8-20.79 122.45-20.79Q125.05-20.79 126.04-20.69 127.02-20.58 128.04-20.28L128.04-20.28Q132.78-18.49 132.53-11.7L132.53-11.7 132.53 0 120.49 0Q117.24 0 116-0.19 114.77-0.38 113.83-0.98L113.83-0.98Q111.31-2.69 111.31-6.15L111.31-6.15Q111.31-8.24 112.31-9.88 113.31-11.53 114.98-12.13L114.98-12.13Q116.43-12.64 119.8-12.64L119.8-12.64ZM126.81-4.44L126.81-8.2 120.23-8.2 119.25-8.2Q118.27-8.2 117.69-7.69 117.11-7.17 117.11-6.28L117.11-6.28Q117.11-5.29 117.82-4.87 118.52-4.44 120.23-4.44L120.23-4.44 126.81-4.44ZM135.09-13.58L145.04-13.58 145.04-8.45 135.09-8.45 135.09-13.58ZM153.66-20.79L165.87-20.79 165.87-16.35 155.75-16.35Q154-16.35 153.53-16.18L153.53-16.18Q152.55-15.84 152.55-14.52L152.55-14.52Q152.55-13.41 153.49-12.81L153.49-12.81Q154-12.47 156.27-12.47L156.27-12.47 159.64-12.47Q162.88-12.47 164.76-11.1L164.76-11.1Q166.85-9.56 166.85-6.58L166.85-6.58Q166.85-4.31 165.57-2.43L165.57-2.43Q164.63-0.94 163.29-0.47 161.94 0 158.78 0L158.78 0 146.96 0 146.96-4.44 157.16-4.44Q159.04-4.44 159.72-4.48L159.72-4.48Q161.26-4.65 161.26-6.23L161.26-6.23Q161.26-7.51 160.24-7.98L160.24-7.98Q159.72-8.24 157.76-8.24L157.76-8.24 154.3-8.24Q152.25-8.24 151.16-8.5 150.07-8.75 149.13-9.44L149.13-9.44Q147.98-10.25 147.32-11.68 146.66-13.11 146.66-14.73L146.66-14.73Q146.66-17.85 148.92-19.68L148.92-19.68Q150.29-20.79 153.66-20.79L153.66-20.79ZM171.21 0L171.21-20.79 176.93-20.79 176.93 0 171.21 0ZM176.93-22.93L171.21-22.93 171.21-28.48 176.93-28.48 176.93-22.93ZM191.83-20.79L202.5-20.79 202.5-0.13Q202.5 1.62 202.1 2.99 201.69 4.35 200.92 5.29L200.92 5.29Q199.94 6.49 198.55 6.94 197.17 7.39 194.52 7.39L194.52 7.39 183.12 7.39 183.12 2.95 193.75 2.95Q195.63 2.95 196.21 2.37 196.78 1.79 196.78 0L196.78 0 191.53 0Q189.01 0 187.37-0.53 185.72-1.07 184.4-2.31L184.4-2.31Q181.28-5.25 181.28-10.42L181.28-10.42Q181.28-16.31 185.08-19L185.08-19Q186.45-19.98 187.97-20.39 189.48-20.79 191.83-20.79L191.83-20.79ZM196.78-4.44L196.78-16.35 192.04-16.35Q187.09-16.35 187.09-10.37L187.09-10.37Q187.09-7.47 188.44-5.96 189.78-4.44 192.34-4.44L192.34-4.44 196.78-4.44ZM208.1 0L208.1-20.79 219.11-20.79Q221.59-20.79 222.89-20.43 224.19-20.07 225.26-19.13L225.26-19.13Q227.44-17.12 227.44-12.81L227.44-12.81 227.44 0 221.72 0 221.72-13.45Q221.72-14.99 221.03-15.67 220.35-16.35 218.77-16.35L218.77-16.35 213.82-16.35 213.82 0 208.1 0Z" transform="translate(-1.6200000047683716, 28.479999542236328)"></path></g></g></g></g></g></g><defs v-gra="od"></defs></svg>
